<svg width="398" height="199" viewBox="0 0 398 199" fill="none" xmlns="http://www.w3.org/2000/svg">
<rect width="397.118" height="199" rx="25" fill="#2FB6F9"/>
<mask id="mask0_4029_358" style="mask-type:alpha" maskUnits="userSpaceOnUse" x="0" y="0" width="398" height="199">
<rect width="397.118" height="199" rx="25" fill="#F7B267"/>
</mask>
<g mask="url(#mask0_4029_358)">
<path d="M18.6153 -33.306C39.1211 -29.2571 57.2252 -18.6484 69.4669 -3.50769C81.7085 11.633 87.2289 30.2435 84.9729 48.7663C82.7169 67.2891 72.8427 84.425 57.2378 96.8983C41.6329 109.372 21.392 116.307 0.384157 116.38L0.230105 81.1949C11.4798 81.1561 22.3189 77.4421 30.6753 70.7626C39.0318 64.0831 44.3194 54.9069 45.5275 44.9879C46.7356 35.0688 43.7794 25.1029 37.224 16.995C30.6686 8.8872 20.9738 3.2062 9.99289 1.038L18.6153 -33.306Z" fill="url(#paint0_linear_4029_358)"/>
<g filter="url(#filter0_f_4029_358)">
<ellipse cx="363.165" cy="181.98" rx="75.29" ry="66.7697" fill="url(#paint1_radial_4029_358)"/>
</g>
</g>
<defs>
<filter id="filter0_f_4029_358" x="283.875" y="111.21" width="158.58" height="141.539" filterUnits="userSpaceOnUse" color-interpolation-filters="sRGB">
<feFlood flood-opacity="0" result="BackgroundImageFix"/>
<feBlend mode="normal" in="SourceGraphic" in2="BackgroundImageFix" result="shape"/>
<feGaussianBlur stdDeviation="2" result="effect1_foregroundBlur_4029_358"/>
</filter>
<linearGradient id="paint0_linear_4029_358" x1="22.1443" y1="-30.7666" x2="40.2157" y2="113.848" gradientUnits="userSpaceOnUse">
<stop stop-color="white"/>
<stop offset="1" stop-color="#CECECE" stop-opacity="0"/>
</linearGradient>
<radialGradient id="paint1_radial_4029_358" cx="0" cy="0" r="1" gradientUnits="userSpaceOnUse" gradientTransform="translate(363.165 181.98) rotate(90) scale(66.7697 75.29)">
<stop stop-color="#D7D7D7" stop-opacity="0.44"/>
<stop offset="1" stop-color="#F1F1F1" stop-opacity="0.33"/>
</radialGradient>
</defs>
</svg>
