<svg width="53" height="46" viewBox="0 0 53 46" fill="none" xmlns="http://www.w3.org/2000/svg">
<path d="M33.1161 20H33.6063C34.7561 20 35.6707 19.4761 36.4919 18.7436C38.578 16.8826 33.6741 15 32 15M30 5.06877C30.2271 5.02373 30.4629 5 30.7048 5C32.5247 5 34 6.34315 34 8C34 9.65685 32.5247 11 30.7048 11C30.4629 11 30.2271 10.9763 30 10.9312" stroke="white" stroke-width="1.5" stroke-linecap="round"/>
<path d="M18.9813 16.1112C17.8023 16.743 14.7111 18.0331 16.5939 19.6474C17.5136 20.436 18.5379 21 19.8257 21H27.1743C28.4621 21 29.4864 20.436 30.4061 19.6474C32.2889 18.0331 29.1977 16.743 28.0187 16.1112C25.254 14.6296 21.746 14.6296 18.9813 16.1112Z" stroke="white" stroke-width="1.5"/>
<path d="M27.5 7.5C27.5 9.70914 25.7091 11.5 23.5 11.5C21.2909 11.5 19.5 9.70914 19.5 7.5C19.5 5.29086 21.2909 3.5 23.5 3.5C25.7091 3.5 27.5 5.29086 27.5 7.5Z" stroke="white" stroke-width="1.5"/>
<path d="M5.52352 42.014C5.52352 41.79 5.54218 41.552 5.57952 41.3C5.62618 41.0387 5.69152 40.7633 5.77552 40.474C5.86885 40.1753 5.98085 39.8627 6.11152 39.536L7.11952 39.928C7.02618 40.1893 6.94218 40.4367 6.86752 40.67C6.80218 40.9033 6.75085 41.1227 6.71352 41.328C6.68552 41.5333 6.67152 41.7293 6.67152 41.916C6.67152 42.4013 6.79752 42.8027 7.04952 43.12C7.30152 43.4373 7.64685 43.6753 8.08552 43.834C8.52418 43.9927 9.01885 44.072 9.56952 44.072C10.1948 44.072 10.7175 43.988 11.1375 43.82C11.5668 43.652 11.9075 43.428 12.1595 43.148C12.4115 42.8773 12.5888 42.574 12.6915 42.238C12.8035 41.902 12.8595 41.5707 12.8595 41.244C12.8595 40.8893 12.7895 40.46 12.6495 39.956C12.5188 39.452 12.2715 38.8267 11.9075 38.08L12.9575 37.548C13.1442 37.9027 13.3122 38.276 13.4615 38.668C13.6202 39.0507 13.7462 39.4473 13.8395 39.858C13.9422 40.2593 13.9935 40.67 13.9935 41.09C13.9935 41.454 13.9468 41.8273 13.8535 42.21C13.7695 42.5927 13.6248 42.9613 13.4195 43.316C13.2142 43.68 12.9388 44.002 12.5935 44.282C12.2575 44.5713 11.8375 44.8 11.3335 44.968C10.8388 45.136 10.2462 45.22 9.55552 45.22C9.01418 45.22 8.49618 45.1547 8.00152 45.024C7.51618 44.9027 7.08685 44.7113 6.71352 44.45C6.34952 44.1887 6.06018 43.8573 5.84552 43.456C5.63085 43.0547 5.52352 42.574 5.52352 42.014ZM9.75152 36.428C9.55552 36.428 9.38752 36.3627 9.24752 36.232C9.11685 36.092 9.05152 35.9287 9.05152 35.742C9.05152 35.5553 9.11685 35.392 9.24752 35.252C9.38752 35.112 9.55552 35.042 9.75152 35.042C9.93818 35.042 10.0968 35.112 10.2275 35.252C10.3675 35.392 10.4375 35.5553 10.4375 35.742C10.4375 35.9287 10.3675 36.092 10.2275 36.232C10.0968 36.3627 9.93818 36.428 9.75152 36.428ZM18.7615 42.07C18.0148 42.07 17.4408 41.986 17.0395 41.818C16.6475 41.65 16.3768 41.3887 16.2275 41.034C16.0782 40.6793 15.9942 40.222 15.9755 39.662L15.6955 32.004H16.8435L17.1235 39.214C17.1422 39.6713 17.1842 40.026 17.2495 40.278C17.3242 40.5207 17.4828 40.6887 17.7255 40.782C17.9775 40.8753 18.3695 40.922 18.9015 40.922C19.0975 40.922 19.2375 40.978 19.3215 41.09C19.4148 41.1927 19.4615 41.3187 19.4615 41.468C19.4615 41.6173 19.3962 41.7573 19.2655 41.888C19.1348 42.0093 18.9668 42.07 18.7615 42.07ZM18.7617 42.07L18.9017 40.922C19.3684 40.922 19.7324 40.8893 19.9937 40.824C20.2551 40.7493 20.4511 40.614 20.5817 40.418C20.7217 40.2127 20.8337 39.9187 20.9177 39.536C21.0017 39.1533 21.1044 38.654 21.2257 38.038L22.3177 38.248C22.2804 38.416 22.2384 38.6027 22.1917 38.808C22.1451 39.0133 22.1031 39.2187 22.0657 39.424C22.0377 39.62 22.0237 39.7927 22.0237 39.942C22.0237 40.082 22.0331 40.2127 22.0517 40.334C22.0704 40.4553 22.1404 40.558 22.2617 40.642C22.3831 40.726 22.5884 40.796 22.8777 40.852C23.1671 40.8987 23.5824 40.922 24.1237 40.922C24.3197 40.922 24.4597 40.978 24.5437 41.09C24.6371 41.1927 24.6837 41.3187 24.6837 41.468C24.6837 41.6173 24.6184 41.7573 24.4877 41.888C24.3571 42.0093 24.1891 42.07 23.9837 42.07C23.4144 42.07 22.9617 42.042 22.6257 41.986C22.2897 41.9207 22.0331 41.8273 21.8557 41.706C21.6877 41.5847 21.5664 41.4353 21.4917 41.258C21.4264 41.0713 21.3751 40.8567 21.3377 40.614L21.7577 40.642C21.6084 40.9407 21.4451 41.1833 21.2677 41.37C21.0997 41.5567 20.9037 41.7013 20.6797 41.804C20.4557 41.9067 20.1851 41.9767 19.8677 42.014C19.5597 42.0513 19.1911 42.07 18.7617 42.07ZM22.4997 36.596C22.3037 36.596 22.1357 36.5307 21.9957 36.4C21.8651 36.26 21.7997 36.0967 21.7997 35.91C21.7997 35.7233 21.8651 35.56 21.9957 35.42C22.1357 35.28 22.3037 35.21 22.4997 35.21C22.6864 35.21 22.8451 35.28 22.9757 35.42C23.1157 35.56 23.1857 35.7233 23.1857 35.91C23.1857 36.0967 23.1157 36.26 22.9757 36.4C22.8451 36.5307 22.6864 36.596 22.4997 36.596ZM20.5817 36.596C20.3857 36.596 20.2177 36.5307 20.0777 36.4C19.9471 36.26 19.8817 36.0967 19.8817 35.91C19.8817 35.7233 19.9471 35.56 20.0777 35.42C20.2177 35.28 20.3857 35.21 20.5817 35.21C20.7684 35.21 20.9271 35.28 21.0577 35.42C21.1977 35.56 21.2677 35.7233 21.2677 35.91C21.2677 36.0967 21.1977 36.26 21.0577 36.4C20.9271 36.5307 20.7684 36.596 20.5817 36.596ZM23.9844 42.07L24.1244 40.922C24.423 40.922 24.6657 40.9033 24.8524 40.866C25.039 40.8193 25.193 40.712 25.3144 40.544C25.445 40.3667 25.5664 40.0913 25.6784 39.718C25.7904 39.3447 25.921 38.822 26.0704 38.15L27.1204 38.444C27.083 38.6027 27.041 38.7847 26.9944 38.99C26.9477 39.186 26.9057 39.3913 26.8684 39.606C26.831 39.8113 26.8124 40.0027 26.8124 40.18C26.8124 40.4133 26.901 40.5953 27.0784 40.726C27.2557 40.8567 27.5777 40.922 28.0444 40.922C28.3244 40.922 28.553 40.8987 28.7304 40.852C28.9077 40.8053 29.0524 40.6933 29.1644 40.516C29.2857 40.3387 29.393 40.054 29.4864 39.662C29.5797 39.27 29.6777 38.7333 29.7804 38.052L30.8444 38.248C30.8164 38.416 30.7837 38.6213 30.7464 38.864C30.709 39.1067 30.6717 39.3493 30.6344 39.592C30.6064 39.8253 30.5924 40.0213 30.5924 40.18C30.5924 40.3107 30.6204 40.4367 30.6764 40.558C30.7417 40.67 30.863 40.7587 31.0404 40.824C31.227 40.8893 31.5024 40.922 31.8664 40.922C32.137 40.922 32.3704 40.8893 32.5664 40.824C32.7717 40.7587 32.9257 40.6373 33.0284 40.46C33.1404 40.2827 33.1964 40.0353 33.1964 39.718C33.1964 39.3633 33.1124 38.92 32.9444 38.388C32.7857 37.8467 32.6037 37.31 32.3984 36.778L33.5324 36.358C33.6537 36.6567 33.7657 36.9973 33.8684 37.38C33.9804 37.7627 34.0737 38.1407 34.1484 38.514C34.223 38.8873 34.2604 39.214 34.2604 39.494C34.2604 39.9233 34.2044 40.3013 34.0924 40.628C33.9804 40.9547 33.8217 41.2253 33.6164 41.44C33.411 41.6453 33.159 41.804 32.8604 41.916C32.5617 42.0187 32.2257 42.07 31.8524 42.07C31.4137 42.07 31.0544 42.0187 30.7744 41.916C30.4944 41.8133 30.2797 41.6593 30.1304 41.454C29.981 41.2393 29.883 40.9687 29.8364 40.642H30.3124C30.135 41.0433 29.9484 41.3467 29.7524 41.552C29.5564 41.7573 29.3137 41.8973 29.0244 41.972C28.735 42.0373 28.3524 42.07 27.8764 42.07C27.643 42.07 27.391 42.0327 27.1204 41.958C26.859 41.8833 26.6304 41.7387 26.4344 41.524C26.2384 41.3 26.1217 40.9687 26.0844 40.53L26.5044 40.446C26.3457 40.922 26.1497 41.2767 25.9164 41.51C25.6924 41.734 25.4217 41.8833 25.1044 41.958C24.787 42.0327 24.4137 42.07 23.9844 42.07ZM35.7749 45.22L35.5229 44.072C36.0829 43.9973 36.5962 43.89 37.0629 43.75C37.5389 43.6193 37.9449 43.428 38.2809 43.176C38.6262 42.924 38.8922 42.5927 39.0789 42.182C39.2656 41.7713 39.3589 41.258 39.3589 40.642C39.3589 40.3527 39.3309 40.0773 39.2749 39.816C39.2189 39.5453 39.1349 39.3073 39.0229 39.102C38.9109 38.8967 38.7756 38.7333 38.6169 38.612C38.4676 38.4907 38.2949 38.43 38.0989 38.43C37.8842 38.43 37.6882 38.514 37.5109 38.682C37.3429 38.8407 37.2076 39.046 37.1049 39.298C37.0116 39.55 36.9649 39.802 36.9649 40.054C36.9649 40.25 37.0022 40.4227 37.0769 40.572C37.1609 40.712 37.2962 40.8193 37.4829 40.894C37.6696 40.9687 37.9122 41.006 38.2109 41.006C38.4816 41.006 38.7522 40.978 39.0229 40.922C39.3029 40.866 39.5409 40.7913 39.7369 40.698L39.7929 41.678C39.5689 41.8367 39.3029 41.9487 38.9949 42.014C38.6962 42.0793 38.3929 42.112 38.0849 42.112C37.7302 42.112 37.4129 42.0747 37.1329 42C36.8622 41.9253 36.6289 41.818 36.4329 41.678C36.2462 41.5287 36.1016 41.342 35.9989 41.118C35.9056 40.894 35.8589 40.6327 35.8589 40.334C35.8589 39.9793 35.9149 39.6247 36.0269 39.27C36.1389 38.906 36.2976 38.5747 36.5029 38.276C36.7082 37.9773 36.9556 37.7393 37.2449 37.562C37.5342 37.3753 37.8562 37.282 38.2109 37.282C38.5842 37.282 38.9109 37.38 39.1909 37.576C39.4709 37.7627 39.7042 38.0193 39.8909 38.346C40.0776 38.6727 40.2176 39.0413 40.3109 39.452C40.4042 39.8627 40.4509 40.2873 40.4509 40.726C40.4509 41.594 40.2736 42.3407 39.9189 42.966C39.5736 43.6007 39.0509 44.1047 38.3509 44.478C37.6602 44.8513 36.8016 45.0987 35.7749 45.22ZM41.7146 41.37L42.2746 40.404C42.4613 40.5253 42.7226 40.642 43.0586 40.754C43.3946 40.866 43.7866 40.922 44.2346 40.922C44.7013 40.922 45.0699 40.8753 45.3406 40.782C45.6206 40.6887 45.8213 40.5533 45.9426 40.376C46.0733 40.1893 46.1386 39.9747 46.1386 39.732C46.1386 39.5453 46.0966 39.3167 46.0126 39.046C45.9379 38.766 45.7699 38.3927 45.5086 37.926C45.2473 37.45 44.8459 36.8293 44.3046 36.064L45.2706 35.434C45.7653 36.1153 46.1573 36.7313 46.4466 37.282C46.7453 37.8327 46.9553 38.318 47.0766 38.738C47.2073 39.1487 47.2726 39.5033 47.2726 39.802C47.2726 40.1753 47.1793 40.5393 46.9926 40.894C46.8059 41.2393 46.4933 41.524 46.0546 41.748C45.6159 41.972 45.0093 42.084 44.2346 42.084C43.8986 42.084 43.5719 42.056 43.2546 42C42.9466 41.944 42.6619 41.8647 42.4006 41.762C42.1393 41.65 41.9106 41.5193 41.7146 41.37Z" fill="white"/>
</svg>
