<svg width="42" height="49" viewBox="0 0 42 49" fill="none" xmlns="http://www.w3.org/2000/svg">
<path d="M18.0617 4.82633L12.2391 9.92134C11.7398 10.3583 12.0746 11.1343 12.7624 11.1343C13.1826 11.1343 13.5232 11.4489 13.5232 11.8371V15.0806C13.5232 17.871 13.5232 19.2662 14.4618 20.1331C15.4003 21 16.9108 21 19.9319 21H22.0681C25.0892 21 26.5997 21 27.5382 20.1331C28.4768 19.2662 28.4768 17.871 28.4768 15.0806V11.8371C28.4768 11.4489 28.8174 11.1343 29.2376 11.1343C29.9254 11.1343 30.2602 10.3583 29.7609 9.92134L23.9383 4.82633C22.5469 3.60878 21.8512 3 21 3C20.1488 3 19.4531 3.60878 18.0617 4.82633Z" stroke="#66CCFF" stroke-width="1.5" stroke-linecap="round" stroke-linejoin="round"/>
<path d="M21 16H21.009" stroke="#66CCFF" stroke-width="2" stroke-linecap="round" stroke-linejoin="round"/>
<path d="M16.3606 43.07C15.8566 43.07 15.4086 43 15.0166 42.86C14.634 42.7107 14.326 42.4633 14.0926 42.118C13.8686 41.7633 13.7426 41.2733 13.7146 40.648L13.4906 35.776H14.6246L14.8486 40.396C14.8766 40.8347 14.956 41.166 15.0866 41.39C15.2173 41.6047 15.3993 41.7493 15.6326 41.824C15.8753 41.8893 16.1646 41.922 16.5006 41.922C16.6966 41.922 16.8366 41.978 16.9206 42.09C17.014 42.1927 17.0606 42.3187 17.0606 42.468C17.0606 42.6173 16.9953 42.7573 16.8646 42.888C16.734 43.0093 16.566 43.07 16.3606 43.07ZM14.2466 41.53C13.7146 41.698 13.1966 41.782 12.6926 41.782C12.1886 41.782 11.7313 41.7073 11.3206 41.558C10.91 41.4087 10.5833 41.194 10.3406 40.914C10.098 40.6247 9.97664 40.2793 9.97664 39.878C9.97664 39.486 10.0746 39.1173 10.2706 38.772C10.476 38.4267 10.7513 38.1187 11.0966 37.848C11.4513 37.5773 11.8573 37.3533 12.3146 37.176C12.7813 36.9893 13.276 36.8633 13.7986 36.798L13.9946 37.974C13.528 37.9927 13.1126 38.058 12.7486 38.17C12.394 38.2727 12.0906 38.408 11.8386 38.576C11.596 38.744 11.4093 38.926 11.2786 39.122C11.148 39.318 11.0826 39.5093 11.0826 39.696C11.0826 39.9013 11.1573 40.0693 11.3066 40.2C11.456 40.3307 11.6473 40.4333 11.8806 40.508C12.114 40.5733 12.3706 40.6153 12.6506 40.634C12.9306 40.6433 13.2013 40.634 13.4626 40.606C13.724 40.5687 13.948 40.5173 14.1346 40.452L14.2466 41.53ZM16.3652 43.07L16.5052 41.922C16.9626 41.922 17.3266 41.894 17.5972 41.838C17.8679 41.782 18.0639 41.67 18.1852 41.502C18.3066 41.3247 18.3672 41.0633 18.3672 40.718C18.3672 40.4847 18.3299 40.2093 18.2552 39.892C18.1806 39.5653 18.0826 39.22 17.9612 38.856C17.8399 38.492 17.7092 38.1327 17.5692 37.778L18.7032 37.358C18.8246 37.6567 18.9366 37.9973 19.0392 38.38C19.1512 38.7627 19.2446 39.1407 19.3192 39.514C19.3939 39.8873 19.4312 40.214 19.4312 40.494C19.4312 40.8673 19.3892 41.1987 19.3052 41.488C19.2306 41.768 19.1139 42.0107 18.9552 42.216C18.7966 42.412 18.5912 42.5753 18.3392 42.706C18.0966 42.8273 17.8119 42.9207 17.4852 42.986C17.1586 43.042 16.7852 43.07 16.3652 43.07ZM18.1572 35.902C17.9612 35.902 17.7932 35.8367 17.6532 35.706C17.5226 35.566 17.4572 35.4027 17.4572 35.216C17.4572 35.0293 17.5226 34.866 17.6532 34.726C17.7932 34.586 17.9612 34.516 18.1572 34.516C18.3439 34.516 18.5026 34.586 18.6332 34.726C18.7732 34.866 18.8432 35.0293 18.8432 35.216C18.8432 35.4027 18.7732 35.566 18.6332 35.706C18.5026 35.8367 18.3439 35.902 18.1572 35.902ZM24.199 43.07C23.4523 43.07 22.8783 42.986 22.477 42.818C22.085 42.65 21.8143 42.3887 21.665 42.034C21.5157 41.6793 21.4317 41.222 21.413 40.662L21.133 33.004H22.281L22.561 40.214C22.5797 40.6713 22.6217 41.026 22.687 41.278C22.7617 41.5207 22.9203 41.6887 23.163 41.782C23.415 41.8753 23.807 41.922 24.339 41.922C24.535 41.922 24.675 41.978 24.759 42.09C24.8523 42.1927 24.899 42.3187 24.899 42.468C24.899 42.6173 24.8337 42.7573 24.703 42.888C24.5723 43.0093 24.4043 43.07 24.199 43.07ZM24.1992 43.07L24.3252 41.922C24.8106 41.922 25.2866 41.8847 25.7532 41.81C26.2199 41.7353 26.6772 41.628 27.1252 41.488C27.5732 41.348 28.0026 41.18 28.4132 40.984C28.8332 40.7787 29.2299 40.5453 29.6032 40.284C29.3606 40.0693 29.0806 39.8827 28.7632 39.724C28.4459 39.5653 28.0959 39.444 27.7132 39.36C27.3399 39.2667 26.9432 39.22 26.5232 39.22C26.3739 39.22 26.2339 39.2247 26.1032 39.234C25.9726 39.2433 25.8419 39.262 25.7112 39.29C25.5806 39.3087 25.4312 39.3367 25.2632 39.374L25.0392 38.31C25.2912 38.2353 25.5432 38.1793 25.7952 38.142C26.0472 38.0953 26.2899 38.072 26.5232 38.072C27.0086 38.072 27.4472 38.1327 27.8392 38.254C28.2312 38.366 28.5859 38.506 28.9032 38.674C29.2299 38.842 29.5332 39.01 29.8132 39.178C30.1026 39.346 30.3826 39.4907 30.6532 39.612C30.9239 39.724 31.2039 39.78 31.4932 39.78H31.7872L31.8852 40.788C31.4839 40.788 31.1152 40.844 30.7792 40.956C30.4432 41.068 30.1119 41.2127 29.7852 41.39C29.4679 41.558 29.1319 41.74 28.7772 41.936C28.4226 42.1227 28.0306 42.3047 27.6012 42.482C27.1719 42.65 26.6772 42.79 26.1172 42.902C25.5666 43.014 24.9272 43.07 24.1992 43.07ZM26.5372 36.63C26.3412 36.63 26.1732 36.5647 26.0332 36.434C25.9026 36.294 25.8372 36.1307 25.8372 35.944C25.8372 35.7573 25.9026 35.594 26.0332 35.454C26.1732 35.314 26.3412 35.244 26.5372 35.244C26.7239 35.244 26.8826 35.314 27.0132 35.454C27.1532 35.594 27.2232 35.7573 27.2232 35.944C27.2232 36.1307 27.1532 36.294 27.0132 36.434C26.8826 36.5647 26.7239 36.63 26.5372 36.63Z" fill="#66CCFF"/>
</svg>
