<svg width="38" height="46" viewBox="0 0 38 46" fill="none" xmlns="http://www.w3.org/2000/svg">
<path d="M14.2947 17C10.5304 7.25 15.8631 2.9375 19 2C22.1369 2.9375 27.4696 7.25 23.7053 17C23.1369 16.6875 21.4 16.0625 19 16.0625C16.6 16.0625 14.8631 16.6875 14.2947 17Z" stroke="white" stroke-width="1.5" stroke-linecap="round" stroke-linejoin="round"/>
<path d="M21 9C21 7.89543 20.1046 7 19 7C17.8954 7 17 7.89543 17 9C17 10.1046 17.8954 11 19 11C20.1046 11 21 10.1046 21 9Z" stroke="white" stroke-width="1.5"/>
<path d="M24.5 15.5576C25.9421 15.6908 27.7078 16.0822 28.9814 17C28.9814 17 29.5044 12.0642 25 11" stroke="white" stroke-width="1.5" stroke-linecap="round" stroke-linejoin="round"/>
<path d="M13.5 15.5576C12.0579 15.6908 10.2922 16.0822 9.01858 17C9.01858 17 8.49555 12.0642 13 11" stroke="white" stroke-width="1.5" stroke-linecap="round" stroke-linejoin="round"/>
<path d="M16.5 19C16.5 19 16.9167 21.5 19 22C21.0833 21.5 21.5 19 21.5 19" stroke="white" stroke-width="1.5" stroke-linecap="round" stroke-linejoin="round"/>
<path d="M7.2102 40.922C7.67686 40.922 8.04553 40.8753 8.3162 40.782C8.5962 40.6887 8.79686 40.5533 8.9182 40.376C9.04886 40.1893 9.1142 39.9747 9.1142 39.732C9.1142 39.5453 9.06286 39.3213 8.9602 39.06C8.86686 38.7987 8.7362 38.5093 8.5682 38.192C8.4002 37.8653 8.2042 37.5247 7.9802 37.17C7.76553 36.806 7.5322 36.4373 7.2802 36.064L8.2462 35.434C8.6102 35.9847 8.92753 36.5073 9.1982 37.002C9.46886 37.4873 9.69753 37.9447 9.8842 38.374C10.0709 38.794 10.2202 39.1907 10.3322 39.564C10.4629 39.9747 10.6075 40.278 10.7662 40.474C10.9342 40.67 11.1069 40.796 11.2842 40.852C11.4615 40.8987 11.6249 40.922 11.7742 40.922C11.9702 40.922 12.1149 40.978 12.2082 41.09C12.3015 41.1927 12.3482 41.3187 12.3482 41.468C12.3482 41.6173 12.2829 41.7573 12.1522 41.888C12.0215 42.0093 11.8535 42.07 11.6482 42.07C11.3402 42.07 11.0369 42.014 10.7382 41.902C10.4489 41.7807 10.1969 41.5893 9.9822 41.328C9.76753 41.0573 9.6182 40.698 9.5342 40.25L10.0942 39.802C10.0942 40.1753 10.0149 40.5393 9.8562 40.894C9.69753 41.2393 9.4082 41.524 8.9882 41.748C8.57753 41.972 7.98486 42.084 7.2102 42.084C6.8742 42.084 6.54753 42.056 6.2302 42C5.9222 41.944 5.63753 41.8647 5.3762 41.762C5.11486 41.65 4.8862 41.5193 4.6902 41.37L5.2502 40.404C5.43686 40.5253 5.6982 40.642 6.0342 40.754C6.3702 40.866 6.7622 40.922 7.2102 40.922ZM11.6514 42.07L11.7914 40.922C12.0527 40.922 12.272 40.866 12.4494 40.754C12.6267 40.642 12.7994 40.4553 12.9674 40.194C13.1354 39.9327 13.3174 39.5827 13.5134 39.144C13.784 38.5467 14.05 38.094 14.3114 37.786C14.582 37.478 14.848 37.268 15.1094 37.156C15.38 37.044 15.646 36.988 15.9074 36.988C16.2247 36.988 16.5187 37.072 16.7894 37.24C17.06 37.3987 17.298 37.6133 17.5034 37.884C17.7087 38.1547 17.8674 38.4533 17.9794 38.78C18.1007 39.0973 18.1614 39.4147 18.1614 39.732C18.1614 40.292 18.0634 40.74 17.8674 41.076C17.6714 41.4027 17.4194 41.6407 17.1114 41.79C16.8127 41.93 16.5 42 16.1734 42C15.884 42 15.5107 41.944 15.0534 41.832C14.6054 41.72 14.036 41.4353 13.3454 40.978L13.8914 40.096C14.3487 40.3853 14.7594 40.586 15.1234 40.698C15.4967 40.8007 15.8047 40.852 16.0474 40.852C16.318 40.852 16.5327 40.8147 16.6914 40.74C16.85 40.656 16.9667 40.5393 17.0414 40.39C17.116 40.2407 17.1534 40.0727 17.1534 39.886C17.1534 39.6153 17.088 39.3447 16.9574 39.074C16.8267 38.8033 16.6587 38.5793 16.4534 38.402C16.2574 38.2247 16.0474 38.136 15.8234 38.136C15.6554 38.136 15.492 38.1827 15.3334 38.276C15.1747 38.3693 15.0114 38.542 14.8434 38.794C14.6754 39.046 14.484 39.41 14.2694 39.886C14.0454 40.39 13.8307 40.7913 13.6254 41.09C13.4294 41.3793 13.2287 41.594 13.0234 41.734C12.818 41.874 12.6034 41.9627 12.3794 42C12.1647 42.0467 11.922 42.07 11.6514 42.07ZM20.2948 42L20.0148 32.004H21.1488L21.4288 42H20.2948ZM22.0433 45.22L21.6373 44.156C22.58 43.8573 23.3033 43.498 23.8073 43.078C24.3206 42.6673 24.6706 42.238 24.8573 41.79C25.0533 41.342 25.1513 40.9127 25.1513 40.502C25.1513 40.2407 25.1233 39.9887 25.0673 39.746C25.0113 39.5033 24.9133 39.228 24.7733 38.92C24.6333 38.612 24.4373 38.2293 24.1853 37.772L25.2073 37.254C25.562 37.8607 25.814 38.4347 25.9633 38.976C26.122 39.5173 26.2013 39.9933 26.2013 40.404C26.2013 40.992 26.1033 41.524 25.9073 42C25.7206 42.476 25.4686 42.896 25.1513 43.26C24.8433 43.6333 24.5026 43.9507 24.1293 44.212C23.7653 44.4733 23.3966 44.688 23.0233 44.856C22.6593 45.024 22.3326 45.1453 22.0433 45.22ZM27.6179 41.37L28.1779 40.404C28.3646 40.5253 28.6259 40.642 28.9619 40.754C29.2979 40.866 29.6899 40.922 30.1379 40.922C30.6046 40.922 30.9733 40.8753 31.2439 40.782C31.5239 40.6887 31.7246 40.5533 31.8459 40.376C31.9766 40.1893 32.0419 39.9747 32.0419 39.732C32.0419 39.5453 31.9999 39.3167 31.9159 39.046C31.8413 38.766 31.6733 38.3927 31.4119 37.926C31.1506 37.45 30.7493 36.8293 30.2079 36.064L31.1739 35.434C31.6686 36.1153 32.0606 36.7313 32.3499 37.282C32.6486 37.8327 32.8586 38.318 32.9799 38.738C33.1106 39.1487 33.1759 39.5033 33.1759 39.802C33.1759 40.1753 33.0826 40.5393 32.8959 40.894C32.7093 41.2393 32.3966 41.524 31.9579 41.748C31.5193 41.972 30.9126 42.084 30.1379 42.084C29.8019 42.084 29.4753 42.056 29.1579 42C28.8499 41.944 28.5653 41.8647 28.3039 41.762C28.0426 41.65 27.8139 41.5193 27.6179 41.37Z" fill="white"/>
</svg>
