<svg width="56" height="46" viewBox="0 0 56 46" fill="none" xmlns="http://www.w3.org/2000/svg">
<path d="M26 7.0268C26.483 4.17323 28.9665 2 31.9575 2C35.2947 2 38 4.70532 38 8.0425C38 11.0335 35.8268 13.517 32.9732 14" stroke="#FFFAF5" stroke-width="1.5" stroke-linecap="round" stroke-linejoin="round"/>
<path d="M24 22C27.3137 22 30 19.3137 30 16C30 12.6863 27.3137 10 24 10C20.6863 10 18 12.6863 18 16C18 19.3137 20.6863 22 24 22Z" stroke="#FFFAF5" stroke-width="1.5" stroke-linecap="round" stroke-linejoin="round"/>
<path d="M18 9C18 5.68286 20.6829 3 24 3L23.1429 4.71429" stroke="#FFFAF5" stroke-width="1.5" stroke-linecap="round" stroke-linejoin="round"/>
<path d="M38 15C38 18.3171 35.3171 21 32 21L32.8571 19.2857" stroke="#FFFAF5" stroke-width="1.5" stroke-linecap="round" stroke-linejoin="round"/>
<path d="M7.87292 42C7.41559 42 7.00492 41.9207 6.64092 41.762C6.27692 41.6033 5.98759 41.3607 5.77292 41.034C5.56759 40.7073 5.46492 40.292 5.46492 39.788C5.46492 39.3867 5.61892 38.8873 5.92692 38.29C6.23492 37.6833 6.77159 37.044 7.53692 36.372L7.80292 37.128L6.85092 36.274L7.57892 35.406C8.06426 35.7887 8.51226 36.1993 8.92292 36.638C9.33359 37.0767 9.66492 37.5433 9.91692 38.038C10.1689 38.5327 10.2949 39.0553 10.2949 39.606C10.2949 39.8207 10.2576 40.0633 10.1829 40.334C10.1083 40.6047 9.98226 40.8707 9.80492 41.132C9.62759 41.384 9.38026 41.594 9.06292 41.762C8.74559 41.9207 8.34892 42 7.87292 42ZM7.87292 40.852C8.19026 40.852 8.45159 40.8007 8.65692 40.698C8.87159 40.586 9.03026 40.432 9.13292 40.236C9.24492 40.04 9.30092 39.8113 9.30092 39.55C9.30092 39.3167 9.25892 39.074 9.17492 38.822C9.10026 38.5607 8.94159 38.2807 8.69892 37.982C8.46559 37.674 8.10626 37.3287 7.62092 36.946L8.23692 36.918C7.89159 37.2167 7.59292 37.534 7.34092 37.87C7.08892 38.1967 6.89759 38.5187 6.76692 38.836C6.63626 39.144 6.57092 39.424 6.57092 39.676C6.57092 40.068 6.69226 40.362 6.93492 40.558C7.18692 40.754 7.49959 40.852 7.87292 40.852ZM14.7928 42.07C14.0461 42.07 13.4721 41.986 13.0708 41.818C12.6788 41.65 12.4081 41.3887 12.2588 41.034C12.1094 40.6793 12.0254 40.222 12.0068 39.662L11.7268 32.004H12.8748L13.1548 39.214C13.1734 39.6713 13.2154 40.026 13.2808 40.278C13.3554 40.5207 13.5141 40.6887 13.7568 40.782C14.0088 40.8753 14.4008 40.922 14.9328 40.922C15.1288 40.922 15.2688 40.978 15.3528 41.09C15.4461 41.1927 15.4928 41.3187 15.4928 41.468C15.4928 41.6173 15.4274 41.7573 15.2968 41.888C15.1661 42.0093 14.9981 42.07 14.7928 42.07ZM14.779 34.3L14.261 33.516C14.625 33.292 15.059 33.026 15.563 32.718C16.0763 32.41 16.6643 32.0693 17.327 31.696C17.9896 31.3227 18.7223 30.926 19.525 30.506L19.917 31.36C19.105 31.7893 18.3816 32.1813 17.747 32.536C17.1216 32.8907 16.5663 33.2127 16.081 33.502C15.5956 33.7913 15.1616 34.0573 14.779 34.3ZM14.793 42.07L14.933 40.922H16.011C16.7856 40.922 17.3596 40.88 17.733 40.796C18.1063 40.712 18.349 40.6 18.461 40.46C18.5823 40.32 18.643 40.1753 18.643 40.026C18.643 39.802 18.559 39.5547 18.391 39.284C18.223 39.0133 18.0083 38.738 17.747 38.458C17.4856 38.1687 17.2056 37.884 16.907 37.604C16.6176 37.324 16.3423 37.0673 16.081 36.834C15.8196 36.6007 15.605 36.4 15.437 36.232C15.269 36.0547 15.185 35.9287 15.185 35.854C15.185 35.714 15.1943 35.5787 15.213 35.448C15.241 35.3173 15.2736 35.196 15.311 35.084C15.3576 34.972 15.4136 34.8833 15.479 34.818C15.6656 34.622 15.9223 34.4167 16.249 34.202C16.5756 33.978 16.9536 33.754 17.383 33.53C17.8123 33.2967 18.2696 33.0633 18.755 32.83C19.2403 32.5873 19.7303 32.3447 20.225 32.102L20.701 33.138C20.253 33.362 19.805 33.586 19.357 33.81C18.909 34.0247 18.475 34.2393 18.055 34.454C17.635 34.6687 17.2383 34.888 16.865 35.112C16.501 35.3267 16.1696 35.546 15.871 35.77L15.955 35.294C16.375 35.6487 16.7716 35.9893 17.145 36.316C17.5183 36.6427 17.873 36.9787 18.209 37.324C18.545 37.66 18.8576 38.024 19.147 38.416C19.4363 38.808 19.707 39.242 19.959 39.718C20.155 40.082 20.3836 40.348 20.645 40.516C20.9063 40.684 21.163 40.796 21.415 40.852C21.6763 40.8987 21.8863 40.922 22.045 40.922C22.241 40.922 22.381 40.978 22.465 41.09C22.5583 41.1927 22.605 41.3187 22.605 41.468C22.605 41.6173 22.5396 41.7573 22.409 41.888C22.2783 42.0093 22.1103 42.07 21.905 42.07C21.653 42.07 21.3543 42.0327 21.009 41.958C20.673 41.874 20.3416 41.7153 20.015 41.482C19.6883 41.2487 19.4176 40.894 19.203 40.418L19.623 40.586C19.483 40.838 19.3196 41.0573 19.133 41.244C18.9556 41.4213 18.727 41.5753 18.447 41.706C18.167 41.8273 17.8263 41.9207 17.425 41.986C17.0236 42.042 16.5336 42.07 15.955 42.07H14.793ZM21.9023 42.07L22.0423 40.922C22.341 40.922 22.5837 40.9033 22.7703 40.866C22.957 40.8193 23.111 40.712 23.2323 40.544C23.363 40.3667 23.4843 40.0913 23.5963 39.718C23.7083 39.3447 23.839 38.822 23.9883 38.15L25.0383 38.444C25.001 38.6027 24.959 38.7847 24.9123 38.99C24.8657 39.186 24.8237 39.3913 24.7863 39.606C24.749 39.8113 24.7303 40.0027 24.7303 40.18C24.7303 40.4133 24.819 40.5953 24.9963 40.726C25.1737 40.8567 25.4957 40.922 25.9623 40.922C26.2423 40.922 26.471 40.8987 26.6483 40.852C26.8257 40.8053 26.9703 40.6933 27.0823 40.516C27.2037 40.3387 27.311 40.054 27.4043 39.662C27.4977 39.27 27.5957 38.7333 27.6983 38.052L28.7623 38.248C28.7343 38.416 28.7017 38.6213 28.6643 38.864C28.627 39.1067 28.5897 39.3493 28.5523 39.592C28.5243 39.8253 28.5103 40.0213 28.5103 40.18C28.5103 40.3107 28.5383 40.4367 28.5943 40.558C28.6597 40.67 28.781 40.7587 28.9583 40.824C29.145 40.8893 29.4203 40.922 29.7843 40.922C30.055 40.922 30.2883 40.8893 30.4843 40.824C30.6897 40.7587 30.8437 40.6373 30.9463 40.46C31.0583 40.2827 31.1143 40.0353 31.1143 39.718C31.1143 39.3633 31.0303 38.92 30.8623 38.388C30.7037 37.8467 30.5217 37.31 30.3163 36.778L31.4503 36.358C31.5717 36.6567 31.6837 36.9973 31.7863 37.38C31.8983 37.7627 31.9917 38.1407 32.0663 38.514C32.141 38.8873 32.1783 39.214 32.1783 39.494C32.1783 39.9233 32.1223 40.3013 32.0103 40.628C31.8983 40.9547 31.7397 41.2253 31.5343 41.44C31.329 41.6453 31.077 41.804 30.7783 41.916C30.4797 42.0187 30.1437 42.07 29.7703 42.07C29.3317 42.07 28.9723 42.0187 28.6923 41.916C28.4123 41.8133 28.1977 41.6593 28.0483 41.454C27.899 41.2393 27.801 40.9687 27.7543 40.642H28.2303C28.053 41.0433 27.8663 41.3467 27.6703 41.552C27.4743 41.7573 27.2317 41.8973 26.9423 41.972C26.653 42.0373 26.2703 42.07 25.7943 42.07C25.561 42.07 25.309 42.0327 25.0383 41.958C24.777 41.8833 24.5483 41.7387 24.3523 41.524C24.1563 41.3 24.0397 40.9687 24.0023 40.53L24.4223 40.446C24.2637 40.922 24.0677 41.2767 23.8343 41.51C23.6103 41.734 23.3397 41.8833 23.0223 41.958C22.705 42.0327 22.3317 42.07 21.9023 42.07ZM27.9363 34.37C27.7403 34.37 27.5723 34.3047 27.4323 34.174C27.3017 34.034 27.2363 33.8707 27.2363 33.684C27.2363 33.4973 27.3017 33.334 27.4323 33.194C27.5723 33.054 27.7403 32.984 27.9363 32.984C28.123 32.984 28.2817 33.054 28.4123 33.194C28.5523 33.334 28.6223 33.4973 28.6223 33.684C28.6223 33.8707 28.5523 34.034 28.4123 34.174C28.2817 34.3047 28.123 34.37 27.9363 34.37ZM26.9843 35.91C26.7883 35.91 26.6203 35.8447 26.4803 35.714C26.3497 35.574 26.2843 35.4107 26.2843 35.224C26.2843 35.0373 26.3497 34.874 26.4803 34.734C26.6203 34.594 26.7883 34.524 26.9843 34.524C27.171 34.524 27.3297 34.594 27.4603 34.734C27.6003 34.874 27.6703 35.0373 27.6703 35.224C27.6703 35.4107 27.6003 35.574 27.4603 35.714C27.3297 35.8447 27.171 35.91 26.9843 35.91ZM28.8883 35.91C28.6923 35.91 28.5243 35.8447 28.3843 35.714C28.2537 35.574 28.1883 35.4107 28.1883 35.224C28.1883 35.0373 28.2537 34.874 28.3843 34.734C28.5243 34.594 28.6923 34.524 28.8883 34.524C29.075 34.524 29.2337 34.594 29.3643 34.734C29.5043 34.874 29.5743 35.0373 29.5743 35.224C29.5743 35.4107 29.5043 35.574 29.3643 35.714C29.2337 35.8447 29.075 35.91 28.8883 35.91ZM33.6929 45.22L33.4409 44.072C34.0009 43.9973 34.5142 43.89 34.9809 43.75C35.4569 43.6193 35.8629 43.428 36.1989 43.176C36.5442 42.924 36.8102 42.5927 36.9969 42.182C37.1835 41.7713 37.2769 41.258 37.2769 40.642C37.2769 40.3527 37.2489 40.0773 37.1929 39.816C37.1369 39.5453 37.0529 39.3073 36.9409 39.102C36.8289 38.8967 36.6935 38.7333 36.5349 38.612C36.3855 38.4907 36.2129 38.43 36.0169 38.43C35.8022 38.43 35.6062 38.514 35.4289 38.682C35.2609 38.8407 35.1255 39.046 35.0229 39.298C34.9295 39.55 34.8829 39.802 34.8829 40.054C34.8829 40.25 34.9202 40.4227 34.9949 40.572C35.0789 40.712 35.2142 40.8193 35.4009 40.894C35.5875 40.9687 35.8302 41.006 36.1289 41.006C36.3995 41.006 36.6702 40.978 36.9409 40.922C37.2209 40.866 37.4589 40.7913 37.6549 40.698L37.7109 41.678C37.4869 41.8367 37.2209 41.9487 36.9129 42.014C36.6142 42.0793 36.3109 42.112 36.0029 42.112C35.6482 42.112 35.3309 42.0747 35.0509 42C34.7802 41.9253 34.5469 41.818 34.3509 41.678C34.1642 41.5287 34.0195 41.342 33.9169 41.118C33.8235 40.894 33.7769 40.6327 33.7769 40.334C33.7769 39.9793 33.8329 39.6247 33.9449 39.27C34.0569 38.906 34.2155 38.5747 34.4209 38.276C34.6262 37.9773 34.8735 37.7393 35.1629 37.562C35.4522 37.3753 35.7742 37.282 36.1289 37.282C36.5022 37.282 36.8289 37.38 37.1089 37.576C37.3889 37.7627 37.6222 38.0193 37.8089 38.346C37.9955 38.6727 38.1355 39.0413 38.2289 39.452C38.3222 39.8627 38.3689 40.2873 38.3689 40.726C38.3689 41.594 38.1915 42.3407 37.8369 42.966C37.4915 43.6007 36.9689 44.1047 36.2689 44.478C35.5782 44.8513 34.7195 45.0987 33.6929 45.22ZM39.1986 45.248L38.7926 44.184C39.4739 43.96 40.0386 43.7033 40.4866 43.414C40.9439 43.1247 41.3032 42.8167 41.5646 42.49C41.8352 42.1633 42.0266 41.832 42.1386 41.496C42.2506 41.1507 42.3066 40.8193 42.3066 40.502C42.3066 40.0447 42.2039 39.5827 41.9986 39.116C41.8026 38.64 41.5832 38.192 41.3406 37.772L42.3626 37.254C42.5399 37.5807 42.6939 37.9027 42.8246 38.22C42.9646 38.5373 43.0859 38.836 43.1886 39.116C43.3006 39.396 43.3892 39.6527 43.4546 39.886C43.5852 40.2873 43.7532 40.5627 43.9586 40.712C44.1732 40.852 44.4626 40.922 44.8266 40.922C45.0226 40.922 45.1626 40.978 45.2466 41.09C45.3399 41.1927 45.3866 41.3187 45.3866 41.468C45.3866 41.6173 45.3212 41.7573 45.1906 41.888C45.0599 42.0093 44.8919 42.07 44.6866 42.07C44.2759 42.07 43.9399 42 43.6786 41.86C43.4266 41.7107 43.2352 41.5193 43.1046 41.286C42.9739 41.0433 42.8852 40.7913 42.8386 40.53L43.2866 40.782C43.2866 41.398 43.1466 41.958 42.8666 42.462C42.5959 42.9753 42.2459 43.4187 41.8166 43.792C41.3872 44.1747 40.9392 44.4873 40.4726 44.73C40.0059 44.9727 39.5812 45.1453 39.1986 45.248ZM44.6934 42.07L44.8334 40.922C45.0667 40.922 45.3234 40.922 45.6034 40.922C45.8927 40.9127 46.182 40.9033 46.4714 40.894C46.77 40.8847 47.0454 40.866 47.2974 40.838C47.5494 40.8007 47.7594 40.754 47.9274 40.698C48.2634 40.5767 48.5247 40.4273 48.7114 40.25C48.898 40.0633 49.0287 39.8207 49.1034 39.522C49.1874 39.214 49.2294 38.822 49.2294 38.346C49.2294 37.954 49.178 37.59 49.0754 37.254C48.9727 36.918 48.828 36.6473 48.6414 36.442C48.4547 36.2367 48.2307 36.134 47.9694 36.134C47.7547 36.134 47.5587 36.218 47.3814 36.386C47.2134 36.5447 47.078 36.75 46.9754 37.002C46.882 37.254 46.8354 37.506 46.8354 37.758C46.8354 37.954 46.8727 38.122 46.9474 38.262C47.0314 38.402 47.1667 38.514 47.3534 38.598C47.54 38.6727 47.7827 38.71 48.0814 38.71C48.352 38.71 48.6227 38.682 48.8934 38.626C49.1734 38.57 49.4114 38.4953 49.6074 38.402L49.6634 39.382C49.514 39.4847 49.346 39.5687 49.1594 39.634C48.9727 39.6993 48.7767 39.746 48.5714 39.774C48.366 39.802 48.1607 39.816 47.9554 39.816C47.4794 39.816 47.0734 39.7413 46.7374 39.592C46.4107 39.4333 46.1587 39.2233 45.9814 38.962C45.8134 38.6913 45.7294 38.3833 45.7294 38.038C45.7294 37.6833 45.7854 37.3287 45.8974 36.974C46.0094 36.61 46.168 36.2787 46.3734 35.98C46.5787 35.6813 46.826 35.4433 47.1154 35.266C47.4047 35.0793 47.7267 34.986 48.0814 34.986C48.5854 34.986 49.0007 35.1493 49.3274 35.476C49.6634 35.8027 49.9107 36.232 50.0694 36.764C50.2374 37.2867 50.3214 37.842 50.3214 38.43C50.3214 39.13 50.2 39.732 49.9574 40.236C49.724 40.7307 49.332 41.1413 48.7814 41.468C48.5667 41.5893 48.3054 41.692 47.9974 41.776C47.6987 41.8507 47.3674 41.9113 47.0034 41.958C46.6487 42.0047 46.2754 42.0327 45.8834 42.042C45.4914 42.0607 45.0947 42.07 44.6934 42.07ZM47.8154 33.544C47.6194 33.544 47.4514 33.4787 47.3114 33.348C47.1807 33.208 47.1154 33.0447 47.1154 32.858C47.1154 32.6713 47.1807 32.508 47.3114 32.368C47.4514 32.228 47.6194 32.158 47.8154 32.158C48.002 32.158 48.1607 32.228 48.2914 32.368C48.4314 32.508 48.5014 32.6713 48.5014 32.858C48.5014 33.0447 48.4314 33.208 48.2914 33.348C48.1607 33.4787 48.002 33.544 47.8154 33.544Z" fill="white"/>
</svg>
